<?xml version="1.0" encoding="iso-8859-1"?>
<!-- Generator: Adobe Illustrator 16.0.0, SVG Export Plug-In . SVG Version: 6.00 Build 0)  -->
<!DOCTYPE svg PUBLIC "-//W3C//DTD SVG 1.1//EN" "http://www.w3.org/Graphics/SVG/1.1/DTD/svg11.dtd">
<svg version="1.1" id="Capa_1" xmlns="http://www.w3.org/2000/svg" xmlns:xlink="http://www.w3.org/1999/xlink" x="0px" y="0px"
	 width="94px" height="94px" viewBox="0 0 94 94" style="enable-background:new 0 0 94 94;" xml:space="preserve">
<g>
	<path d="M89,0H5C2.239,0,0,2.238,0,5v84c0,2.762,2.239,5,5,5h84c2.762,0,5-2.238,5-5V5C94,2.238,91.762,0,89,0z M9.875,47
		C9.875,26.496,26.497,9.875,47,9.875c0.913,0,1.805,0.072,2.7,0.137c1.126,4.299,6.224,24.96,5.907,45.438
		c-14.573,1.297-32.236,0.495-45.579-5.427C9.947,49.025,9.875,48.02,9.875,47z M50.562,83.945c-1.172,0.111-2.358,0.18-3.562,0.18
		c-17.642,0-32.377-12.318-36.157-28.812c9.737,3.838,20.955,5.179,31.747,5.179c4.406,0,8.73,0.213,12.855-0.138
		C54.997,68.757,53.534,76.641,50.562,83.945z M55.531,83.102c2.623-7.396,3.966-15.509,4.371-23.625
		c10.267-1.144,18.729-2.97,23.225-4.053C79.945,69.115,69.205,79.881,55.531,83.102z M83.938,50.725
		c-3.412,0.853-12.547,2.977-23.906,4.272c0.264-20.192-4.223-39.181-5.566-44.371c16.924,3.459,29.66,18.43,29.66,36.374
		C84.125,48.258,84.057,49.495,83.938,50.725z"/>
</g>
<g>
</g>
<g>
</g>
<g>
</g>
<g>
</g>
<g>
</g>
<g>
</g>
<g>
</g>
<g>
</g>
<g>
</g>
<g>
</g>
<g>
</g>
<g>
</g>
<g>
</g>
<g>
</g>
<g>
</g>
</svg>
